<mxfile host="app.diagrams.net" modified="2024-05-14T08:11:12.490Z" agent="Mozilla/5.0 (Windows NT 10.0; Win64; x64) AppleWebKit/537.36 (KHTML, like Gecko) Chrome/124.0.0.0 Safari/537.36" etag="Zyk_XOH72UrH-U_f5-he" version="24.4.0" type="github">
  <diagram name="Page-1" id="RYTVGtYCtdf6n45jKJDW">
    <mxGraphModel dx="1222" dy="586" grid="1" gridSize="10" guides="1" tooltips="1" connect="1" arrows="1" fold="1" page="1" pageScale="1" pageWidth="850" pageHeight="1100" math="0" shadow="0">
      <root>
        <mxCell id="0" />
        <mxCell id="1" parent="0" />
        <mxCell id="Lg54S9610k611saLA15z-1" value="&lt;font style=&quot;font-size: 16px;&quot;&gt;&lt;b&gt;HRM&lt;/b&gt;&lt;/font&gt;" style="shape=umlActor;verticalLabelPosition=bottom;verticalAlign=top;html=1;outlineConnect=0;" vertex="1" parent="1">
          <mxGeometry x="100" y="100" width="60" height="120" as="geometry" />
        </mxCell>
        <mxCell id="Lg54S9610k611saLA15z-2" value="HOD" style="shape=umlActor;verticalLabelPosition=bottom;verticalAlign=top;html=1;outlineConnect=0;fontStyle=0" vertex="1" parent="1">
          <mxGeometry x="100" y="340" width="60" height="130" as="geometry" />
        </mxCell>
        <mxCell id="Lg54S9610k611saLA15z-3" value="&lt;font style=&quot;font-size: 14px;&quot;&gt;&lt;b&gt;Intern&lt;/b&gt;&lt;/font&gt;" style="shape=umlActor;verticalLabelPosition=bottom;verticalAlign=top;html=1;outlineConnect=0;" vertex="1" parent="1">
          <mxGeometry x="110" y="830" width="60" height="110" as="geometry" />
        </mxCell>
        <mxCell id="Lg54S9610k611saLA15z-4" value="&lt;font style=&quot;font-size: 16px;&quot;&gt;&lt;b&gt;Supervisor&lt;/b&gt;&lt;/font&gt;" style="shape=umlActor;verticalLabelPosition=bottom;verticalAlign=top;html=1;outlineConnect=0;" vertex="1" parent="1">
          <mxGeometry x="90" y="570" width="40" height="120" as="geometry" />
        </mxCell>
        <mxCell id="Lg54S9610k611saLA15z-6" value="" style="swimlane;startSize=0;" vertex="1" parent="1">
          <mxGeometry x="270" y="115" width="390" height="870" as="geometry" />
        </mxCell>
        <mxCell id="Lg54S9610k611saLA15z-8" value="" style="line;strokeWidth=1;fillColor=none;align=left;verticalAlign=middle;spacingTop=-1;spacingLeft=3;spacingRight=3;rotatable=0;labelPosition=right;points=[];portConstraint=eastwest;strokeColor=inherit;" vertex="1" parent="Lg54S9610k611saLA15z-6">
          <mxGeometry y="50" width="380" height="8" as="geometry" />
        </mxCell>
        <mxCell id="Lg54S9610k611saLA15z-9" value="&lt;font style=&quot;font-size: 16px;&quot;&gt;Intern Managment Use cae&lt;/font&gt;" style="text;html=1;align=center;verticalAlign=middle;resizable=0;points=[];autosize=1;strokeColor=none;fillColor=none;" vertex="1" parent="Lg54S9610k611saLA15z-6">
          <mxGeometry x="35" y="20" width="220" height="30" as="geometry" />
        </mxCell>
        <mxCell id="Lg54S9610k611saLA15z-10" value="Authentication" style="ellipse;whiteSpace=wrap;html=1;" vertex="1" parent="Lg54S9610k611saLA15z-6">
          <mxGeometry x="65" y="300" width="180" height="80" as="geometry" />
        </mxCell>
        <mxCell id="Lg54S9610k611saLA15z-18" value="Assign Department" style="ellipse;whiteSpace=wrap;html=1;" vertex="1" parent="Lg54S9610k611saLA15z-6">
          <mxGeometry x="45" y="140" width="200" height="70" as="geometry" />
        </mxCell>
        <mxCell id="Lg54S9610k611saLA15z-19" value="Assign Supervisor" style="ellipse;whiteSpace=wrap;html=1;" vertex="1" parent="Lg54S9610k611saLA15z-6">
          <mxGeometry x="170" y="425" width="200" height="70" as="geometry" />
        </mxCell>
        <mxCell id="Lg54S9610k611saLA15z-20" value="Provide Taskts" style="ellipse;whiteSpace=wrap;html=1;" vertex="1" parent="Lg54S9610k611saLA15z-6">
          <mxGeometry x="172.5" y="525" width="200" height="70" as="geometry" />
        </mxCell>
        <mxCell id="Lg54S9610k611saLA15z-21" value="perform Tasks" style="ellipse;whiteSpace=wrap;html=1;" vertex="1" parent="Lg54S9610k611saLA15z-6">
          <mxGeometry x="172.5" y="695" width="195" height="70" as="geometry" />
        </mxCell>
        <mxCell id="Lg54S9610k611saLA15z-38" value="&lt;font style=&quot;font-size: 13px;&quot;&gt;&lt;b&gt;include&lt;/b&gt;&lt;/font&gt;" style="endArrow=open;endSize=12;dashed=1;html=1;rounded=0;" edge="1" parent="Lg54S9610k611saLA15z-6" source="Lg54S9610k611saLA15z-10" target="Lg54S9610k611saLA15z-18">
          <mxGeometry width="160" relative="1" as="geometry">
            <mxPoint x="-20" y="235" as="sourcePoint" />
            <mxPoint x="140" y="235" as="targetPoint" />
          </mxGeometry>
        </mxCell>
        <mxCell id="Lg54S9610k611saLA15z-41" value="&lt;font style=&quot;font-size: 14px;&quot;&gt;&lt;b&gt;Include&lt;/b&gt;&lt;/font&gt;" style="endArrow=open;endSize=12;dashed=1;html=1;rounded=0;entryX=0.543;entryY=-0.003;entryDx=0;entryDy=0;entryPerimeter=0;" edge="1" parent="Lg54S9610k611saLA15z-6" source="Lg54S9610k611saLA15z-10" target="Lg54S9610k611saLA15z-19">
          <mxGeometry width="160" relative="1" as="geometry">
            <mxPoint x="-115" y="265" as="sourcePoint" />
            <mxPoint x="155" y="540" as="targetPoint" />
          </mxGeometry>
        </mxCell>
        <mxCell id="Lg54S9610k611saLA15z-43" value="&lt;font style=&quot;font-size: 14px;&quot;&gt;&lt;b&gt;Include&lt;/b&gt;&lt;/font&gt;" style="endArrow=open;endSize=12;dashed=1;html=1;rounded=0;entryX=0;entryY=0.5;entryDx=0;entryDy=0;" edge="1" parent="Lg54S9610k611saLA15z-6" target="Lg54S9610k611saLA15z-20">
          <mxGeometry width="160" relative="1" as="geometry">
            <mxPoint x="130" y="385" as="sourcePoint" />
            <mxPoint x="290" y="385" as="targetPoint" />
          </mxGeometry>
        </mxCell>
        <mxCell id="Lg54S9610k611saLA15z-44" value="&lt;font style=&quot;font-size: 13px;&quot;&gt;&lt;b&gt;Include&lt;/b&gt;&lt;/font&gt;" style="endArrow=open;endSize=12;dashed=1;html=1;rounded=0;exitX=0;exitY=1;exitDx=0;exitDy=0;entryX=0.018;entryY=0.639;entryDx=0;entryDy=0;entryPerimeter=0;" edge="1" parent="Lg54S9610k611saLA15z-6" source="Lg54S9610k611saLA15z-10" target="Lg54S9610k611saLA15z-21">
          <mxGeometry width="160" relative="1" as="geometry">
            <mxPoint x="20" y="685" as="sourcePoint" />
            <mxPoint x="180" y="685" as="targetPoint" />
          </mxGeometry>
        </mxCell>
        <mxCell id="Lg54S9610k611saLA15z-46" value="Extend" style="endArrow=open;endSize=12;dashed=1;html=1;rounded=0;exitX=0.5;exitY=1;exitDx=0;exitDy=0;entryX=0.5;entryY=0;entryDx=0;entryDy=0;" edge="1" parent="Lg54S9610k611saLA15z-6" source="Lg54S9610k611saLA15z-20" target="Lg54S9610k611saLA15z-21">
          <mxGeometry width="160" relative="1" as="geometry">
            <mxPoint x="70" y="795" as="sourcePoint" />
            <mxPoint x="230" y="795" as="targetPoint" />
          </mxGeometry>
        </mxCell>
        <mxCell id="Lg54S9610k611saLA15z-47" value="" style="endArrow=none;dashed=1;html=1;rounded=0;exitX=1;exitY=1;exitDx=0;exitDy=0;exitPerimeter=0;" edge="1" parent="Lg54S9610k611saLA15z-6" source="Lg54S9610k611saLA15z-3">
          <mxGeometry width="50" height="50" relative="1" as="geometry">
            <mxPoint x="130" y="795" as="sourcePoint" />
            <mxPoint x="180" y="745" as="targetPoint" />
          </mxGeometry>
        </mxCell>
        <mxCell id="Lg54S9610k611saLA15z-48" value="" style="endArrow=none;dashed=1;html=1;dashPattern=1 3;strokeWidth=2;rounded=0;" edge="1" parent="Lg54S9610k611saLA15z-6" target="Lg54S9610k611saLA15z-7">
          <mxGeometry width="50" height="50" relative="1" as="geometry">
            <mxPoint x="240" y="345" as="sourcePoint" />
            <mxPoint x="290" y="295" as="targetPoint" />
          </mxGeometry>
        </mxCell>
        <mxCell id="Lg54S9610k611saLA15z-49" value="" style="endArrow=none;dashed=1;html=1;dashPattern=1 3;strokeWidth=2;rounded=0;entryX=0;entryY=0;entryDx=0;entryDy=52.5;entryPerimeter=0;" edge="1" parent="Lg54S9610k611saLA15z-6" target="Lg54S9610k611saLA15z-7">
          <mxGeometry width="50" height="50" relative="1" as="geometry">
            <mxPoint x="250" y="175" as="sourcePoint" />
            <mxPoint x="300" y="125" as="targetPoint" />
          </mxGeometry>
        </mxCell>
        <mxCell id="Lg54S9610k611saLA15z-7" value="DB" style="shape=cylinder3;whiteSpace=wrap;html=1;boundedLbl=1;backgroundOutline=1;size=15;" vertex="1" parent="1">
          <mxGeometry x="830" y="500" width="150" height="180" as="geometry" />
        </mxCell>
        <mxCell id="Lg54S9610k611saLA15z-30" value="" style="endArrow=none;dashed=1;html=1;dashPattern=1 3;strokeWidth=2;rounded=0;entryX=0;entryY=0.5;entryDx=0;entryDy=0;" edge="1" parent="1" source="Lg54S9610k611saLA15z-2" target="Lg54S9610k611saLA15z-10">
          <mxGeometry width="50" height="50" relative="1" as="geometry">
            <mxPoint x="190" y="390" as="sourcePoint" />
            <mxPoint x="240" y="340" as="targetPoint" />
          </mxGeometry>
        </mxCell>
        <mxCell id="Lg54S9610k611saLA15z-31" value="" style="endArrow=none;dashed=1;html=1;rounded=0;entryX=0;entryY=0.5;entryDx=0;entryDy=0;" edge="1" parent="1" source="Lg54S9610k611saLA15z-4" target="Lg54S9610k611saLA15z-10">
          <mxGeometry width="50" height="50" relative="1" as="geometry">
            <mxPoint x="230" y="510" as="sourcePoint" />
            <mxPoint x="280" y="460" as="targetPoint" />
          </mxGeometry>
        </mxCell>
        <mxCell id="Lg54S9610k611saLA15z-32" value="" style="endArrow=none;dashed=1;html=1;rounded=0;exitX=1;exitY=0.3333333333333333;exitDx=0;exitDy=0;exitPerimeter=0;entryX=0;entryY=0.5;entryDx=0;entryDy=0;" edge="1" parent="1" source="Lg54S9610k611saLA15z-3" target="Lg54S9610k611saLA15z-10">
          <mxGeometry width="50" height="50" relative="1" as="geometry">
            <mxPoint x="230" y="510" as="sourcePoint" />
            <mxPoint x="280" y="460" as="targetPoint" />
          </mxGeometry>
        </mxCell>
        <mxCell id="Lg54S9610k611saLA15z-33" value="" style="endArrow=none;dashed=1;html=1;rounded=0;entryX=0.006;entryY=0.31;entryDx=0;entryDy=0;entryPerimeter=0;" edge="1" parent="1" source="Lg54S9610k611saLA15z-1" target="Lg54S9610k611saLA15z-10">
          <mxGeometry width="50" height="50" relative="1" as="geometry">
            <mxPoint x="170" y="160" as="sourcePoint" />
            <mxPoint x="220" y="110" as="targetPoint" />
          </mxGeometry>
        </mxCell>
        <mxCell id="Lg54S9610k611saLA15z-34" value="" style="endArrow=none;dashed=1;html=1;rounded=0;" edge="1" parent="1" target="Lg54S9610k611saLA15z-18">
          <mxGeometry width="50" height="50" relative="1" as="geometry">
            <mxPoint x="160" y="150" as="sourcePoint" />
            <mxPoint x="210" y="100" as="targetPoint" />
          </mxGeometry>
        </mxCell>
        <mxCell id="Lg54S9610k611saLA15z-50" value="" style="endArrow=none;dashed=1;html=1;rounded=0;" edge="1" parent="1" source="Lg54S9610k611saLA15z-19">
          <mxGeometry width="50" height="50" relative="1" as="geometry">
            <mxPoint x="780" y="620" as="sourcePoint" />
            <mxPoint x="830" y="570" as="targetPoint" />
          </mxGeometry>
        </mxCell>
        <mxCell id="Lg54S9610k611saLA15z-51" value="" style="endArrow=none;dashed=1;html=1;rounded=0;exitX=0.986;exitY=0.657;exitDx=0;exitDy=0;exitPerimeter=0;" edge="1" parent="1" source="Lg54S9610k611saLA15z-20">
          <mxGeometry width="50" height="50" relative="1" as="geometry">
            <mxPoint x="780" y="630" as="sourcePoint" />
            <mxPoint x="830" y="580" as="targetPoint" />
          </mxGeometry>
        </mxCell>
        <mxCell id="Lg54S9610k611saLA15z-52" value="" style="endArrow=none;dashed=1;html=1;rounded=0;exitX=1;exitY=0.5;exitDx=0;exitDy=0;" edge="1" parent="1" source="Lg54S9610k611saLA15z-21">
          <mxGeometry width="50" height="50" relative="1" as="geometry">
            <mxPoint x="780" y="640" as="sourcePoint" />
            <mxPoint x="830" y="590" as="targetPoint" />
          </mxGeometry>
        </mxCell>
        <mxCell id="Lg54S9610k611saLA15z-54" value="" style="swimlane;startSize=0;" vertex="1" parent="1">
          <mxGeometry x="270" y="115" width="390" height="870" as="geometry" />
        </mxCell>
        <mxCell id="Lg54S9610k611saLA15z-55" value="" style="line;strokeWidth=1;fillColor=none;align=left;verticalAlign=middle;spacingTop=-1;spacingLeft=3;spacingRight=3;rotatable=0;labelPosition=right;points=[];portConstraint=eastwest;strokeColor=inherit;" vertex="1" parent="Lg54S9610k611saLA15z-54">
          <mxGeometry y="50" width="380" height="8" as="geometry" />
        </mxCell>
        <mxCell id="Lg54S9610k611saLA15z-56" value="&lt;font style=&quot;font-size: 16px;&quot;&gt;Intern Managment Use cae&lt;/font&gt;" style="text;html=1;align=center;verticalAlign=middle;resizable=0;points=[];autosize=1;strokeColor=none;fillColor=none;" vertex="1" parent="Lg54S9610k611saLA15z-54">
          <mxGeometry x="35" y="20" width="220" height="30" as="geometry" />
        </mxCell>
        <mxCell id="Lg54S9610k611saLA15z-57" value="Authentication" style="ellipse;whiteSpace=wrap;html=1;" vertex="1" parent="Lg54S9610k611saLA15z-54">
          <mxGeometry x="65" y="300" width="180" height="80" as="geometry" />
        </mxCell>
        <mxCell id="Lg54S9610k611saLA15z-58" value="Assign Department" style="ellipse;whiteSpace=wrap;html=1;" vertex="1" parent="Lg54S9610k611saLA15z-54">
          <mxGeometry x="45" y="140" width="200" height="70" as="geometry" />
        </mxCell>
        <mxCell id="Lg54S9610k611saLA15z-59" value="Assign Supervisor" style="ellipse;whiteSpace=wrap;html=1;" vertex="1" parent="Lg54S9610k611saLA15z-54">
          <mxGeometry x="170" y="425" width="200" height="70" as="geometry" />
        </mxCell>
        <mxCell id="Lg54S9610k611saLA15z-60" value="Provide Taskts" style="ellipse;whiteSpace=wrap;html=1;" vertex="1" parent="Lg54S9610k611saLA15z-54">
          <mxGeometry x="172.5" y="525" width="200" height="70" as="geometry" />
        </mxCell>
        <mxCell id="Lg54S9610k611saLA15z-61" value="perform Tasks" style="ellipse;whiteSpace=wrap;html=1;" vertex="1" parent="Lg54S9610k611saLA15z-54">
          <mxGeometry x="172.5" y="695" width="195" height="70" as="geometry" />
        </mxCell>
        <mxCell id="Lg54S9610k611saLA15z-62" value="&lt;font style=&quot;font-size: 13px;&quot;&gt;&lt;b&gt;include&lt;/b&gt;&lt;/font&gt;" style="endArrow=open;endSize=12;dashed=1;html=1;rounded=0;" edge="1" parent="Lg54S9610k611saLA15z-54" source="Lg54S9610k611saLA15z-57" target="Lg54S9610k611saLA15z-58">
          <mxGeometry width="160" relative="1" as="geometry">
            <mxPoint x="-20" y="235" as="sourcePoint" />
            <mxPoint x="140" y="235" as="targetPoint" />
          </mxGeometry>
        </mxCell>
        <mxCell id="Lg54S9610k611saLA15z-63" value="&lt;font style=&quot;font-size: 14px;&quot;&gt;&lt;b&gt;Include&lt;/b&gt;&lt;/font&gt;" style="endArrow=open;endSize=12;dashed=1;html=1;rounded=0;entryX=0.543;entryY=-0.003;entryDx=0;entryDy=0;entryPerimeter=0;" edge="1" parent="Lg54S9610k611saLA15z-54" source="Lg54S9610k611saLA15z-57" target="Lg54S9610k611saLA15z-59">
          <mxGeometry width="160" relative="1" as="geometry">
            <mxPoint x="-115" y="265" as="sourcePoint" />
            <mxPoint x="155" y="540" as="targetPoint" />
          </mxGeometry>
        </mxCell>
        <mxCell id="Lg54S9610k611saLA15z-64" value="&lt;font style=&quot;font-size: 14px;&quot;&gt;&lt;b&gt;Include&lt;/b&gt;&lt;/font&gt;" style="endArrow=open;endSize=12;dashed=1;html=1;rounded=0;entryX=0;entryY=0.5;entryDx=0;entryDy=0;" edge="1" parent="Lg54S9610k611saLA15z-54" target="Lg54S9610k611saLA15z-60">
          <mxGeometry width="160" relative="1" as="geometry">
            <mxPoint x="130" y="385" as="sourcePoint" />
            <mxPoint x="290" y="385" as="targetPoint" />
          </mxGeometry>
        </mxCell>
        <mxCell id="Lg54S9610k611saLA15z-65" value="&lt;font style=&quot;font-size: 13px;&quot;&gt;&lt;b&gt;Include&lt;/b&gt;&lt;/font&gt;" style="endArrow=open;endSize=12;dashed=1;html=1;rounded=0;exitX=0;exitY=1;exitDx=0;exitDy=0;entryX=0.018;entryY=0.639;entryDx=0;entryDy=0;entryPerimeter=0;" edge="1" parent="Lg54S9610k611saLA15z-54" source="Lg54S9610k611saLA15z-57" target="Lg54S9610k611saLA15z-61">
          <mxGeometry width="160" relative="1" as="geometry">
            <mxPoint x="20" y="685" as="sourcePoint" />
            <mxPoint x="180" y="685" as="targetPoint" />
          </mxGeometry>
        </mxCell>
        <mxCell id="Lg54S9610k611saLA15z-66" value="Extend" style="endArrow=open;endSize=12;dashed=1;html=1;rounded=0;exitX=0.5;exitY=1;exitDx=0;exitDy=0;entryX=0.5;entryY=0;entryDx=0;entryDy=0;" edge="1" parent="Lg54S9610k611saLA15z-54" source="Lg54S9610k611saLA15z-60" target="Lg54S9610k611saLA15z-61">
          <mxGeometry width="160" relative="1" as="geometry">
            <mxPoint x="70" y="795" as="sourcePoint" />
            <mxPoint x="230" y="795" as="targetPoint" />
          </mxGeometry>
        </mxCell>
        <mxCell id="Lg54S9610k611saLA15z-72" value="" style="endArrow=none;dashed=1;html=1;rounded=0;exitX=0.943;exitY=0.764;exitDx=0;exitDy=0;exitPerimeter=0;" edge="1" parent="1" source="Lg54S9610k611saLA15z-60">
          <mxGeometry width="50" height="50" relative="1" as="geometry">
            <mxPoint x="760" y="990" as="sourcePoint" />
            <mxPoint x="100" y="710" as="targetPoint" />
            <Array as="points">
              <mxPoint x="760" y="693" />
              <mxPoint x="760" y="790" />
              <mxPoint x="760" y="1040" />
              <mxPoint x="100" y="1030" />
            </Array>
          </mxGeometry>
        </mxCell>
        <mxCell id="Lg54S9610k611saLA15z-73" value="" style="endArrow=none;dashed=1;html=1;rounded=0;exitX=1;exitY=0.5;exitDx=0;exitDy=0;" edge="1" parent="1" source="Lg54S9610k611saLA15z-59">
          <mxGeometry width="50" height="50" relative="1" as="geometry">
            <mxPoint x="70" y="450" as="sourcePoint" />
            <mxPoint x="120" y="400" as="targetPoint" />
            <Array as="points">
              <mxPoint x="820" y="570" />
              <mxPoint x="850" y="1100" />
              <mxPoint x="40" y="1100" />
              <mxPoint x="20" y="400" />
            </Array>
          </mxGeometry>
        </mxCell>
      </root>
    </mxGraphModel>
  </diagram>
</mxfile>
